<svg  viewBox="0 0 123 128" fill="#0077B6" xmlns="http://www.w3.org/2000/svg">
	<path d="M39.9502 90.8875C43.6446 84.3245 46.7102 77.4269 49.1061 70.2867C52.8601 58.8418 63.0918 49.2052 76.5739 55.5915C88.5608 60.9171 100.211 66.9714 111.458 73.7202C119.63 79.1222 124.574 92.65 116.608 102.447C108.642 112.244 101.203 109.016 86.8514 113.548C72.4995 118.081 66.5481 126.916 57.9416 127.9C49.335 128.885 35.7385 122.544 34.5025 110.641C33.7704 103.606 35.7154 96.5531 39.9502 90.8875Z" />
	<path d="M94.2674 36.1581C94.2674 36.1581 95.4577 26.3156 101.684 21.234C107.91 16.1525 116.173 24.6675 120.774 32.9994C125.375 41.3312 122.445 55.1795 115.646 60.6731C108.848 66.1666 97.9984 61.4971 95.9155 56.0951C93.8325 50.6931 94.2674 36.1581 94.2674 36.1581Z" />
	<path d="M67.0519 1.06815C67.0519 1.06815 80.3051 7.9351 86.0046 17.2512C91.7042 26.5674 91.7271 37.4858 83.8072 43.666C75.8874 49.8462 65.6556 43.666 60.0705 36.7991C54.4854 29.9321 51.258 15.6489 52.4711 7.95797C53.6843 0.267014 64.0762 0.175451 67.0519 1.06815Z" />
	<path d="M36.5168 10.7277C36.5168 10.7277 42.0103 15.3057 47.0003 26.9337C51.9903 38.5617 51.5782 48.1525 47.7328 54.058C43.8873 59.9636 34.1591 62.3899 26.4224 56.8506C18.6857 51.3113 15.4582 35.7462 17.2665 28.5588C19.0748 21.3714 24.2708 11.8264 28.162 9.76634C32.0533 7.70626 34.182 8.16405 36.5168 10.7277Z" />
	<path d="M14.6337 55.6374C14.6337 55.6374 28.3675 63.9234 32.9455 72.9649C37.5235 82.0064 32.419 92.2839 27.0171 94.1608C21.6151 96.0378 12.3218 94.9391 4.51641 84.4098C-3.289 73.8805 0.693809 58.1323 4.05861 55.9807C7.4234 53.8291 14.6337 55.6374 14.6337 55.6374Z" />
</svg>
