<svg width="121" height="24" viewBox="0 0 121 24" fill="none" xmlns="http://www.w3.org/2000/svg">
<rect y="0.0650024" width="17.8126" height="17.8126" fill="#0085FF"/>
<rect x="2.0293" y="2.09338" width="17.8126" height="17.8126" fill="#070A0E"/>
<rect x="4.05762" y="4.12219" width="17.8126" height="17.8126" fill="#0085FF"/>
<path d="M32.5551 19H28.9515L34.4423 3.09455H38.7759L44.2589 19H40.6554L36.6712 6.72919H36.547L32.5551 19ZM32.3299 12.7481H40.8418V15.3731H32.3299V12.7481ZM46.1112 23.4734V7.07091H49.3731V9.07462H49.5206C49.6656 8.75362 49.8753 8.42743 50.1497 8.09607C50.4293 7.75952 50.7917 7.47994 51.237 7.2573C51.6874 7.02949 52.2466 6.91558 52.9145 6.91558C53.7844 6.91558 54.5869 7.1434 55.3221 7.59902C56.0573 8.04947 56.645 8.73032 57.085 9.64157C57.5251 10.5476 57.7452 11.6841 57.7452 13.051C57.7452 14.3816 57.5303 15.5051 57.1006 16.4216C56.676 17.3328 56.0961 18.024 55.3609 18.4952C54.6309 18.9612 53.8128 19.1942 52.9068 19.1942C52.2647 19.1942 51.7185 19.088 51.2681 18.8757C50.8228 18.6635 50.4578 18.3968 50.173 18.0758C49.8882 17.7496 49.6708 17.4208 49.5206 17.0895H49.4197V23.4734H46.1112ZM49.3498 13.0355C49.3498 13.7448 49.4481 14.3635 49.6449 14.8916C49.8416 15.4197 50.1264 15.8313 50.4992 16.1265C50.872 16.4164 51.325 16.5614 51.8583 16.5614C52.3968 16.5614 52.8524 16.4138 53.2252 16.1187C53.598 15.8184 53.8801 15.4042 54.0717 14.8761C54.2685 14.3428 54.3668 13.7292 54.3668 13.0355C54.3668 12.3468 54.271 11.7411 54.0795 11.2181C53.8879 10.6952 53.6057 10.2862 53.2329 9.99105C52.8602 9.69593 52.4019 9.54837 51.8583 9.54837C51.3198 9.54837 50.8642 9.69075 50.4914 9.97552C50.1238 10.2603 49.8416 10.6641 49.6449 11.1871C49.4481 11.71 49.3498 12.3261 49.3498 13.0355ZM65.3873 19.233C64.1602 19.233 63.104 18.9845 62.2186 18.4874C61.3384 17.9852 60.6601 17.2759 60.1838 16.3594C59.7075 15.4378 59.4693 14.348 59.4693 13.0898C59.4693 11.8627 59.7075 10.7858 60.1838 9.85902C60.6601 8.93224 61.3306 8.20997 62.1953 7.69222C63.0651 7.17446 64.0851 6.91558 65.2552 6.91558C66.0422 6.91558 66.7748 7.04243 67.4531 7.29613C68.1365 7.54466 68.732 7.92003 69.2394 8.42225C69.7519 8.92447 70.1506 9.55614 70.4354 10.3172C70.7201 11.0732 70.8625 11.9585 70.8625 12.9733V13.882H60.7896V11.8317H67.7482C67.7482 11.3553 67.6447 10.9334 67.4376 10.5658C67.2305 10.1982 66.9431 9.9108 66.5755 9.7037C66.2131 9.49142 65.7911 9.38528 65.3096 9.38528C64.8074 9.38528 64.3621 9.50177 63.9738 9.73476C63.5906 9.96257 63.2903 10.2706 63.0729 10.659C62.8554 11.0421 62.7441 11.4692 62.7389 11.9404V13.8898C62.7389 14.48 62.8477 14.99 63.0651 15.4197C63.2878 15.8495 63.601 16.1808 64.0049 16.4138C64.4087 16.6468 64.8876 16.7633 65.4416 16.7633C65.8092 16.7633 66.1458 16.7115 66.4512 16.608C66.7567 16.5044 67.0182 16.3491 67.2356 16.142C67.4531 15.9349 67.6188 15.6812 67.7327 15.3809L70.7926 15.5828C70.6373 16.318 70.3189 16.96 69.8374 17.5089C69.361 18.0525 68.7449 18.4771 67.989 18.7825C67.2382 19.0828 66.371 19.233 65.3873 19.233ZM81.7121 7.66892C81.65 7.04243 81.3833 6.55574 80.9122 6.20885C80.441 5.86195 79.8016 5.6885 78.9939 5.6885C78.4451 5.6885 77.9817 5.76616 77.6037 5.92149C77.2257 6.07164 76.9358 6.28133 76.7339 6.55056C76.5371 6.8198 76.4388 7.12527 76.4388 7.46699C76.4284 7.75176 76.4879 8.00028 76.6174 8.21256C76.752 8.42484 76.9358 8.60864 77.1688 8.76397C77.4018 8.91412 77.671 9.04615 77.9765 9.16005C78.282 9.26878 78.6081 9.36198 78.955 9.43964L80.384 9.78136C81.0778 9.93669 81.7147 10.1438 82.2946 10.4027C82.8745 10.6615 83.3767 10.98 83.8012 11.3579C84.2258 11.7359 84.5546 12.1812 84.7876 12.6937C85.0257 13.2063 85.1474 13.794 85.1526 14.4567C85.1474 15.4301 84.8989 16.274 84.407 16.9885C83.9203 17.6978 83.2162 18.2493 82.2946 18.6427C81.3781 19.0311 80.2727 19.2252 78.9783 19.2252C77.6943 19.2252 76.576 19.0285 75.6233 18.635C74.6758 18.2415 73.9354 17.659 73.4021 16.8876C72.874 16.1109 72.597 15.1505 72.5711 14.0062H75.8252C75.8615 14.5395 76.0142 14.9848 76.2834 15.3421C76.5578 15.6941 76.9229 15.9608 77.3785 16.142C77.8393 16.318 78.3596 16.406 78.9395 16.406C79.509 16.406 80.0035 16.3232 80.4229 16.1575C80.8474 15.9918 81.1762 15.7614 81.4092 15.4663C81.6422 15.1712 81.7587 14.8321 81.7587 14.4489C81.7587 14.0917 81.6526 13.7914 81.4403 13.548C81.2332 13.3047 80.9277 13.0976 80.5238 12.9267C80.1252 12.7559 79.6359 12.6005 79.056 12.4607L77.3241 12.0258C75.9831 11.6996 74.9243 11.1897 74.1477 10.4959C73.371 9.80207 72.9853 8.86752 72.9905 7.69222C72.9853 6.72919 73.2416 5.88784 73.7594 5.16816C74.2823 4.44848 74.9994 3.88671 75.9106 3.48286C76.8219 3.07901 77.8574 2.87709 79.0172 2.87709C80.1977 2.87709 81.228 3.07901 82.1082 3.48286C82.9935 3.88671 83.6822 4.44848 84.174 5.16816C84.6659 5.88784 84.9196 6.72142 84.9351 7.66892H81.7121ZM90.7541 19.2252C89.993 19.2252 89.3147 19.0932 88.7193 18.8291C88.1239 18.5599 87.6527 18.1638 87.3058 17.6409C86.9641 17.1128 86.7932 16.4552 86.7932 15.6682C86.7932 15.0055 86.9149 14.4489 87.1582 13.9985C87.4016 13.548 87.7329 13.1856 88.1523 12.9112C88.5717 12.6368 89.048 12.4297 89.5813 12.2899C90.1198 12.1501 90.6842 12.0517 91.2744 11.9948C91.9682 11.9223 92.5274 11.855 92.9519 11.7928C93.3765 11.7255 93.6845 11.6272 93.8761 11.4977C94.0677 11.3683 94.1635 11.1767 94.1635 10.923V10.8764C94.1635 10.3845 94.0081 10.004 93.6975 9.73476C93.392 9.46553 92.9571 9.33091 92.3927 9.33091C91.7973 9.33091 91.3236 9.46294 90.9715 9.727C90.6194 9.98587 90.3864 10.3121 90.2725 10.7056L87.2126 10.457C87.3679 9.73217 87.6734 9.10569 88.129 8.57758C88.5847 8.04429 89.1723 7.63526 89.892 7.3505C90.6168 7.06055 91.4556 6.91558 92.4083 6.91558C93.071 6.91558 93.7053 6.99325 94.311 7.14857C94.922 7.3039 95.463 7.54466 95.9342 7.87084C96.4105 8.19703 96.7859 8.61641 97.0603 9.12899C97.3347 9.63639 97.4719 10.2448 97.4719 10.9541V19H94.3343V17.3458H94.2411C94.0496 17.7186 93.7933 18.0473 93.4723 18.3321C93.1513 18.6117 92.7655 18.8317 92.3151 18.9922C91.8646 19.1476 91.3443 19.2252 90.7541 19.2252ZM91.7015 16.9419C92.1882 16.9419 92.618 16.8461 92.9908 16.6546C93.3635 16.4578 93.6561 16.1938 93.8684 15.8624C94.0806 15.531 94.1868 15.1557 94.1868 14.7363V13.4704C94.0832 13.5377 93.9408 13.5998 93.7596 13.6568C93.5836 13.7085 93.3843 13.7577 93.1616 13.8043C92.939 13.8457 92.7163 13.8846 92.4937 13.9208C92.2711 13.9519 92.0692 13.9804 91.8879 14.0062C91.4996 14.0632 91.1605 14.1538 90.8705 14.2781C90.5806 14.4023 90.3554 14.5706 90.1949 14.7829C90.0344 14.99 89.9541 15.2489 89.9541 15.5595C89.9541 16.01 90.1172 16.3543 90.4434 16.5924C90.7748 16.8254 91.1941 16.9419 91.7015 16.9419ZM106.454 7.07091V9.55614H99.0912V7.07091H106.454ZM100.777 19V6.20885C100.777 5.34419 100.945 4.6271 101.281 4.05757C101.623 3.48804 102.089 3.06089 102.679 2.77613C103.27 2.49136 103.94 2.34898 104.691 2.34898C105.198 2.34898 105.662 2.38781 106.081 2.46547C106.505 2.54314 106.821 2.61303 107.028 2.67516L106.438 5.16039C106.309 5.11897 106.148 5.08014 105.957 5.0439C105.77 5.00765 105.579 4.98953 105.382 4.98953C104.895 4.98953 104.556 5.10344 104.365 5.33125C104.173 5.55389 104.077 5.86713 104.077 6.27098V19H100.777ZM113.484 19.233C112.257 19.233 111.201 18.9845 110.316 18.4874C109.435 17.9852 108.757 17.2759 108.281 16.3594C107.804 15.4378 107.566 14.348 107.566 13.0898C107.566 11.8627 107.804 10.7858 108.281 9.85902C108.757 8.93224 109.428 8.20997 110.292 7.69222C111.162 7.17446 112.182 6.91558 113.352 6.91558C114.139 6.91558 114.872 7.04243 115.55 7.29613C116.233 7.54466 116.829 7.92003 117.336 8.42225C117.849 8.92447 118.248 9.55614 118.532 10.3172C118.817 11.0732 118.959 11.9585 118.959 12.9733V13.882H108.887V11.8317H115.845C115.845 11.3553 115.742 10.9334 115.534 10.5658C115.327 10.1982 115.04 9.9108 114.672 9.7037C114.31 9.49142 113.888 9.38528 113.407 9.38528C112.904 9.38528 112.459 9.50177 112.071 9.73476C111.688 9.96257 111.387 10.2706 111.17 10.659C110.952 11.0421 110.841 11.4692 110.836 11.9404V13.8898C110.836 14.48 110.945 14.99 111.162 15.4197C111.385 15.8495 111.698 16.1808 112.102 16.4138C112.506 16.6468 112.985 16.7633 113.539 16.7633C113.906 16.7633 114.243 16.7115 114.548 16.608C114.854 16.5044 115.115 16.3491 115.333 16.142C115.55 15.9349 115.716 15.6812 115.83 15.3809L118.89 15.5828C118.734 16.318 118.416 16.96 117.934 17.5089C117.458 18.0525 116.842 18.4771 116.086 18.7825C115.335 19.0828 114.468 19.233 113.484 19.233Z" fill="white"/>
</svg>
